<?xml version="1.0" encoding="UTF-8" standalone="no"?>
<svg
   xmlns:dc="http://purl.org/dc/elements/1.1/"
   xmlns:cc="http://creativecommons.org/ns#"
   xmlns:rdf="http://www.w3.org/1999/02/22-rdf-syntax-ns#"
   xmlns:svg="http://www.w3.org/2000/svg"
   xmlns="http://www.w3.org/2000/svg"
   xmlns:sodipodi="http://sodipodi.sourceforge.net/DTD/sodipodi-0.dtd"
   xmlns:inkscape="http://www.inkscape.org/namespaces/inkscape"
   width="200.15211mm"
   height="28.694374mm"
   viewBox="0 0 200.15211 28.694374"
   version="1.1"
   id="svg8"
   inkscape:version="1.0.1 (3bc2e813f5, 2020-09-07)"
   sodipodi:docname="logo.svg">
  <defs
     id="defs2" />
  <sodipodi:namedview
     id="base"
     pagecolor="#ffffff"
     bordercolor="#666666"
     borderopacity="1.0"
     inkscape:pageopacity="0.0"
     inkscape:pageshadow="2"
     inkscape:zoom="1"
     inkscape:cx="360.02441"
     inkscape:cy="219.81783"
     inkscape:document-units="mm"
     inkscape:current-layer="layer1"
     inkscape:document-rotation="0"
     showgrid="false"
     inkscape:window-width="1920"
     inkscape:window-height="1016"
     inkscape:window-x="0"
     inkscape:window-y="27"
     inkscape:window-maximized="1"
     fit-margin-top="0"
     fit-margin-left="0"
     fit-margin-right="0"
     fit-margin-bottom="0" />
  <metadata
     id="metadata5">
    <rdf:RDF>
      <cc:Work
         rdf:about="">
        <dc:format>image/svg+xml</dc:format>
        <dc:type
           rdf:resource="http://purl.org/dc/dcmitype/StillImage" />
        <dc:title></dc:title>
      </cc:Work>
    </rdf:RDF>
  </metadata>
  <g
     inkscape:label="Layer 1"
     inkscape:groupmode="layer"
     id="layer1"
     transform="translate(-4.5010173,-6.7194863)">
    <text
       xml:space="preserve"
       style="font-style:normal;font-variant:normal;font-weight:normal;font-stretch:normal;font-size:16.9333px;line-height:1.25;font-family:Checkbook;-inkscape-font-specification:Checkbook;letter-spacing:0px;word-spacing:0px;writing-mode:lr-tb;stroke-width:0.264583"
       x="39.638779"
       y="59.38596"
       id="text12"><tspan
         sodipodi:role="line"
         id="tspan10"
         x="39.638779"
         y="59.38596"
         style="font-style:normal;font-variant:normal;font-weight:normal;font-stretch:normal;font-size:16.9333px;font-family:Checkbook;-inkscape-font-specification:Checkbook;stroke-width:0.264583" /></text>
    <text
       xml:space="preserve"
       style="font-size:3.70417px;line-height:1.25;font-family:'Bebas Neue';-inkscape-font-specification:'Bebas Neue';letter-spacing:0px;word-spacing:0px;writing-mode:lr-tb;stroke-width:0.264583"
       x="41.833363"
       y="115.41424"
       id="text16"><tspan
         sodipodi:role="line"
         id="tspan14"
         x="41.833363"
         y="115.41424"
         style="stroke-width:0.264583" /></text>
    <text
       xml:space="preserve"
       style="font-style:normal;font-variant:normal;font-weight:normal;font-stretch:normal;font-size:16.9333px;line-height:1.25;font-family:Checkbook;-inkscape-font-specification:Checkbook;letter-spacing:0px;word-spacing:0px;writing-mode:lr-tb;stroke-width:0.264583"
       x="69.627846"
       y="46.855865"
       id="text20"><tspan
         sodipodi:role="line"
         id="tspan18"
         x="69.627846"
         y="46.855865"
         style="font-style:normal;font-variant:normal;font-weight:normal;font-stretch:normal;font-size:16.9333px;font-family:Checkbook;-inkscape-font-specification:Checkbook;stroke-width:0.264583" /></text>
    <g
       id="g87">
      <g
         aria-label="INFORMATICA"
         id="text24"
         style="font-style:normal;font-variant:normal;font-weight:normal;font-stretch:normal;font-size:34.1565px;line-height:1.25;font-family:Checkbook;-inkscape-font-specification:Checkbook;letter-spacing:0px;word-spacing:0px;writing-mode:lr-tb;stroke-width:2.43975">
        <path
           id="path52"
           style="font-style:normal;font-variant:normal;font-weight:normal;font-stretch:normal;font-family:Checkbook;-inkscape-font-specification:Checkbook;stroke-width:9.2211"
           d="m 53.949219,25.396484 c -1.912058,0 -3.28844,0.556306 -4.128907,1.669922 -0.966538,1.218675 -1.533083,2.468291 -1.701171,3.75 v 4.003906 92.818358 c 0,1.47082 0.431493,2.72043 1.292968,3.75 0.861478,1.02957 1.943374,1.54492 3.246094,1.54492 1.533848,0 2.814179,-0.51535 3.84375,-1.54492 1.05058,-1.02957 1.576172,-2.27918 1.576172,-3.75 V 42.824219 c 0,-1.891049 0.169673,-3.435151 0.505859,-4.632813 0.336187,-1.218674 1.029498,-1.995845 2.080078,-2.332031 0.25214,-0.08405 0.50372,-0.125 0.75586,-0.125 0.777431,0 1.597509,0.294487 2.458984,0.882813 0.777431,0.52529 1.595554,1.38632 2.457032,2.583984 l 40.531252,50.490234 c 1.28171,1.722953 2.18566,3.350915 2.71093,4.884766 0.52529,1.638906 0.83001,2.847571 0.91407,3.625 0.0841,0.777431 0.12695,1.902238 0.12695,3.373048 v 26.56836 c 0,1.38676 0.5134,2.55252 1.54297,3.49804 0.94552,1.02958 2.10104,1.54493 3.4668,1.54493 1.38676,0 2.63833,-0.51535 3.75195,-1.54493 1.02957,-0.94552 1.54297,-2.11128 1.54297,-3.49804 V 31.982422 c 0,-1.638907 -0.47245,-3.01529 -1.41797,-4.128906 -0.94552,-1.113617 -2.14199,-1.669922 -3.5918,-1.669922 -1.47081,0 -2.67948,0.556305 -3.625,1.669922 -1.02957,1.197663 -1.54492,2.574046 -1.54492,4.128906 v 34.607422 2.425781 c 0,1.134627 -0.0839,1.995658 -0.25195,2.583984 -0.27315,0.609343 -0.7456,0.999881 -1.41797,1.167969 -0.27315,0.08406 -0.53692,0.125 -0.78906,0.125 -0.77743,0 -1.5117,-0.294486 -2.20508,-0.882812 -0.084,-0.08405 -0.76712,-0.945078 -2.04883,-2.583985 L 70.464844,28.484375 c -0.861476,-1.281709 -1.765413,-2.14274 -2.710938,-2.583984 -0.945522,-0.336187 -2.152231,-0.503907 -3.623047,-0.503907 z m 150.119141,0 c -2.33229,0 -4.18307,0.08386 -5.54883,0.251954 -1.38677,0.27315 -2.46866,0.788503 -3.24609,1.544921 -1.28171,1.554861 -1.92188,3.193062 -1.92188,4.916016 v 92.566405 c 0,1.55486 0.12677,2.84738 0.37891,3.87695 0.16809,1.02957 0.64054,1.9335 1.41797,2.71094 0.69338,0.77744 1.42764,1.24988 2.20508,1.41797 0.69338,0.25214 1.76504,0.37891 3.21484,0.37891 h 2.33398 l 51.37305,-0.12696 c 1.55486,0 2.84739,-0.12676 3.87695,-0.3789 1.02957,-0.1681 1.93156,-0.64054 2.70899,-1.41797 1.21867,-1.30272 1.82812,-3.10864 1.82812,-5.41992 V 31.857422 c 0,-2.332291 -0.69331,-4.056306 -2.08007,-5.169922 -0.60934,-0.52529 -1.38651,-0.870969 -2.33204,-1.039062 -0.94552,-0.168094 -2.05813,-0.251954 -3.33984,-0.251954 z m 75.38867,0 c -0.94552,0 -1.84946,0.08386 -2.71094,0.251954 -0.86147,0.168092 -1.54455,0.472818 -2.04882,0.914062 -1.55487,1.02957 -2.33204,2.667771 -2.33204,4.916016 v 93.701174 1.95508 c 0,1.19766 0.16772,2.14255 0.50391,2.83593 0.69339,1.19766 1.64023,1.97484 2.83789,2.33203 1.21868,0.42024 2.68916,0.63086 4.41211,0.63086 h 8.38281 c 2.22724,0 3.99221,-0.77717 5.29493,-2.33203 0.16809,-0.25214 0.46257,-0.68363 0.88281,-1.29297 0.10507,-0.25214 0.1582,-1.11317 0.1582,-2.58398 v -1.54492 -34.070315 c 0,-2.668477 0.72403,-4.695265 2.17383,-6.082031 0.86148,-0.756422 1.72446,-1.228867 2.58594,-1.417969 0.77743,-0.08406 2.068,-0.126953 3.875,-0.126953 h 12.92382 c 2.47938,0 4.2853,0.861031 5.41993,2.583984 0.67237,1.029571 1.10386,1.849647 1.29297,2.458985 0.084,0.693382 0.125,1.807946 0.125,3.341797 v 33.187502 c 0,1.38676 0.12676,2.63638 0.3789,3.75 0.16809,1.19766 0.51377,2.01774 1.03906,2.45898 1.44981,1.02957 2.99586,1.54297 4.63477,1.54297 h 10.71484 c 1.30273,0 2.24762,-0.12481 2.83594,-0.37695 0.60934,-0.18911 1.26169,-0.53674 1.95508,-1.04102 0.58833,-0.52529 0.97691,-1.08159 1.16601,-1.66992 0.0841,-0.60934 0.12696,-1.69123 0.12696,-3.24609 V 79.732422 c 0,-1.029569 -0.0961,-1.933506 -0.28516,-2.710938 -0.16809,-0.756417 -0.51377,-1.43949 -1.03906,-2.048828 -0.50428,-0.609338 -2.04838,-1.302649 -4.63281,-2.080078 -2.66848,-0.672373 -4.2984,-1.576311 -4.88672,-2.710937 -0.60933,-1.029571 -0.95501,-1.8906 -1.03907,-2.583985 -0.16808,-0.67237 -0.25195,-1.744028 -0.25195,-3.214844 V 31.478516 c 0,-2.332291 -0.47244,-3.929539 -1.41797,-4.791016 -1.05058,-0.77743 -2.04862,-1.206969 -2.99414,-1.291016 h -2.83789 z m -143.43555,0.251954 c -0.33618,0 -1.0724,0.0941 -2.20703,0.283203 -1.11361,0.168093 -1.9644,0.503533 -2.55273,1.007812 -1.47081,1.113617 -2.20508,2.837631 -2.20508,5.169922 v 36.023437 c 0,0.08405 0.0409,0.642304 0.125,1.671876 0.0841,1.029568 0.43168,1.974459 1.04102,2.835937 0.52529,0.861475 2.11035,1.681553 4.75781,2.458984 2.58443,0.861478 4.26554,2.027234 5.04297,3.498047 0.52528,0.861476 0.83,1.765413 0.91406,2.710938 v 2.708984 44.535152 c 0,1.36576 0.55826,2.52128 1.67188,3.4668 1.02956,1.02957 2.23627,1.54492 3.62304,1.54492 1.36576,0 2.56418,-0.51535 3.59375,-1.54492 1.05058,-1.02957 1.57617,-2.26895 1.57617,-3.71875 V 91.740234 c 0,-2.311279 0.72403,-4.203012 2.17383,-5.673828 0.86148,-0.861475 1.80832,-1.458735 2.83789,-1.794922 0.94553,-0.252139 2.11128,-0.378906 3.49805,-0.378906 h 17.93359 c 2.08015,0 3.84512,-0.431493 5.29492,-1.292969 1.38677,-0.861477 2.08008,-2.194953 2.08008,-4.001953 0,-1.912058 -0.73621,-3.245533 -2.20703,-4.001953 -1.4498,-0.777429 -3.21477,-1.167969 -5.29492,-1.167969 h -17.30273 c -3.17276,0 -5.57789,-0.944888 -7.2168,-2.835937 -0.77742,-0.861475 -1.20891,-1.722507 -1.29297,-2.583985 -0.16809,-0.777428 -0.25195,-2.069953 -0.25195,-3.876953 V 43.865234 c 0,-2.500384 1.15551,-4.570078 3.46679,-6.208984 0.96654,-0.693383 1.87048,-1.124876 2.71094,-1.292969 0.77743,-0.08405 1.98414,-0.125 3.62305,-0.125 h 19.09961 c 1.55486,0 2.84738,-0.515352 3.87695,-1.544922 1.02957,-1.029569 1.54492,-2.279186 1.54492,-3.75 0,-1.449802 -0.51535,-2.68918 -1.54492,-3.71875 -1.02957,-1.050581 -2.32209,-1.576171 -3.87695,-1.576171 z m 330.9961,0 c -1.19766,-10e-7 -2.31223,0.137005 -3.3418,0.410156 -1.05058,0.252139 -1.95255,0.765538 -2.70898,1.542968 -0.77745,0.861477 -1.24991,1.724461 -1.41797,2.585938 -0.27316,0.861477 -0.41016,2.016995 -0.41016,3.466797 v 40.404297 c 0,3.193769 -1.50316,5.431182 -4.50781,6.71289 -4.05528,1.807005 -6.16592,2.794803 -6.33398,2.962891 -0.50442,0.693385 -0.85204,1.34574 -1.04102,1.955078 -0.25212,0.609336 -0.37891,1.513273 -0.37891,2.710938 v 37.693359 c 0,2.83657 0.65238,4.76926 1.95508,5.79883 0.94554,0.77743 2.48965,1.16797 4.63281,1.16797 0.60934,-0.0841 1.26169,-0.12696 1.95508,-0.12696 h 1.92188 2.58398 c 3.00465,0 5.20111,-0.34763 6.58789,-1.04101 1.89105,-0.94552 2.83594,-2.83531 2.83594,-5.67188 V 90.322266 c 0,-1.029569 0.34765,-2.101226 1.04101,-3.214844 0.58833,-1.113615 1.35525,-1.974647 2.30079,-2.583984 0.86148,-0.609328 1.80637,-0.956959 2.83593,-1.041016 0.96653,-0.08406 1.82758,-0.125 2.58399,-0.125 h 20.92773 c 2.75253,0 4.76907,0.650402 6.05078,1.953125 0.96653,0.945522 1.61888,1.933319 1.95508,2.962891 0.25212,1.113615 0.37891,2.447093 0.37891,4.001953 v 34.732419 c 0,1.28171 0.42953,2.56399 1.29101,3.84571 0.77745,1.30272 2.15383,1.95312 4.12891,1.95312 1.97511,0 3.3944,-0.77717 4.25586,-2.33203 0.5253,-0.94553 0.78711,-2.05814 0.78711,-3.33984 V 32.109375 c 0,-1.975093 -0.59922,-3.572341 -1.79688,-4.791016 -1.21867,-0.945523 -2.42731,-1.501828 -3.625,-1.669921 h -3.875 z m 255.60547,0 c -1.19766,-10e-7 -2.31028,0.137005 -3.33985,0.410156 -1.05058,0.252139 -1.95452,0.765538 -2.71093,1.542968 -0.77748,0.861477 -1.24991,1.724461 -1.41797,2.585938 -0.27314,0.861477 -0.41016,2.016995 -0.41016,3.466797 v 40.404297 c 0,3.193769 -1.50118,5.431182 -4.50586,6.71289 -4.05528,1.807005 -6.16787,2.794803 -6.33594,2.962891 -0.50413,0.693385 -0.84983,1.34574 -1.03906,1.955078 -0.25214,0.609336 -0.37891,1.513273 -0.3789,2.710938 v 37.693359 c 0,2.83657 0.65039,4.76926 1.95312,5.79883 0.94551,0.77743 2.49157,1.16797 4.63477,1.16797 0.60933,-0.0841 1.25973,-0.12696 1.95312,-0.12696 h 1.92188 2.58593 c 3.00468,0 5.19918,-0.34763 6.58594,-1.04101 1.89105,-0.94552 2.83789,-2.83531 2.83789,-5.67188 V 90.322266 c 0,-1.029569 0.34567,-2.101226 1.03906,-3.214844 0.58833,-1.113615 1.35527,-1.974647 2.30079,-2.583984 0.86148,-0.609328 1.80636,-0.956959 2.83593,-1.041016 0.96653,-0.08406 1.82951,-0.125 2.58594,-0.125 h 20.92773 c 2.75251,0 4.76907,0.650402 6.05079,1.953125 0.96655,0.945522 1.61694,1.933319 1.95312,2.962891 0.25215,1.113615 0.37891,2.447093 0.37891,4.001953 v 34.732419 c 0,1.28171 0.43149,2.56399 1.29297,3.84571 0.77742,1.30272 2.15382,1.95312 4.1289,1.95312 1.97511,0 3.39243,-0.77717 4.25391,-2.33203 0.52528,-0.94553 0.78711,-2.05814 0.78711,-3.33984 V 32.109375 c 0,-1.975093 -0.59727,-3.572341 -1.79492,-4.791016 -1.21868,-0.945523 -2.42735,-1.501828 -3.625,-1.669921 h -3.87696 z m -79.76953,0.125 c -0.94554,-10e-7 -2.01719,0.137005 -3.21485,0.410156 -1.30273,0.252139 -2.20667,0.546626 -2.71094,0.882812 -2.08015,1.386768 -3.12109,3.583228 -3.12109,6.587891 v 91.400393 c 0,1.38676 0.13702,2.50961 0.41016,3.37109 0.16809,0.94552 0.64052,1.89237 1.41797,2.83789 0.67235,0.94552 2.09165,1.54474 4.25585,1.79688 h 3.5918 l 43.40039,-0.12696 c 2.50039,0 4.47598,-0.73621 5.92578,-2.20703 0.94557,-0.94552 1.50186,-1.71245 1.66993,-2.30078 0.0842,-0.60934 0.12695,-1.81605 0.12695,-3.62305 v -19.76171 c 0,-1.89105 -0.37833,-3.51902 -1.13477,-4.88477 -0.86148,-1.302723 -2.11305,-1.955078 -3.75195,-1.955078 -2.16418,0 -3.58153,0.609449 -4.25391,1.828128 -0.77742,1.28171 -1.16601,3.03644 -1.16601,5.26367 v 9.29687 c 0,2.58443 -0.86103,4.69703 -2.58399,6.33594 -1.02956,0.94553 -1.97641,1.50183 -2.83789,1.66992 -0.94551,0.27315 -2.32189,0.41016 -4.1289,0.41016 h -21.8418 c -2.92062,0 -5.15804,-0.86103 -6.71289,-2.58398 -0.94554,-1.02957 -1.41797,-2.23824 -1.41797,-3.625 -0.0839,-1.38677 -0.125,-2.59544 -0.125,-3.625 V 44.117188 c 0,-2.752525 1.03899,-4.863172 3.11914,-6.333985 1.36575,-0.945523 3.07954,-1.419922 5.13867,-1.419922 h 11.25 c 2.50039,0 4.39212,0.515353 5.67383,1.544922 1.02957,0.777431 1.72289,1.554603 2.08008,2.332031 0.25214,0.777432 0.37891,1.63846 0.37891,2.583985 v 10.716797 c 0,1.113615 0.21062,2.101412 0.63086,2.96289 0.35719,0.945525 0.92372,1.722696 1.70117,2.332032 0.75641,0.693389 1.48043,1.12488 2.17383,1.292968 0.35719,0.08406 1.26113,0.125 2.71093,0.125 h 8.79297 c 0.42023,0 1.14621,-0.08387 2.17578,-0.251953 1.05059,-0.168093 1.95453,-0.599584 2.71094,-1.292969 0.77747,-0.693382 1.24991,-1.511506 1.41797,-2.457031 0.10507,-0.861475 0.15625,-2.196904 0.15625,-4.003906 V 32.488281 c 0,-1.281709 -0.0512,-2.312413 -0.15625,-3.089843 -0.16811,-0.693384 -0.54645,-1.427648 -1.13477,-2.205079 -0.60933,-0.672372 -1.30265,-1.103863 -2.08008,-1.292968 -0.86148,-0.08405 -2.02723,-0.126953 -3.49804,-0.126953 z M 358.1875,26.058594 c -1.53385,0 -2.78348,0.597259 -3.75,1.794922 -0.42023,0.693383 -0.63086,1.335502 -0.63086,1.923828 -0.0841,0.693384 -0.125,1.386694 -0.125,2.080078 v 94.740238 c 0,1.89104 0.38859,3.5312 1.16602,4.91796 0.77743,1.47082 1.93294,2.20508 3.46679,2.20508 1.72296,0 3.01548,-0.73426 3.87696,-2.20508 0.86147,-1.38676 1.29101,-2.9411 1.29101,-4.66406 V 42.195312 c 0,-1.302722 0.17796,-2.384618 0.53516,-3.246093 0.25214,-0.777431 0.85135,-1.292783 1.79687,-1.544922 h 0.50391 c 0.52529,0 1.04064,0.210627 1.54492,0.630859 0.60934,0.609338 1.08178,1.343603 1.41797,2.205078 l 14.21484,30.855469 c 0.94552,2.248245 2.49986,3.373047 4.66407,3.373047 0.94551,0 1.79632,-0.347634 2.55273,-1.041016 0.69339,-0.609338 1.34574,-1.470366 1.95508,-2.583984 l 17.42969,-29.689453 c 0.3362,-0.777431 0.89249,-1.511696 1.66992,-2.205078 0.60933,-0.50428 1.16563,-0.757813 1.66992,-0.757813 h 0.28516 c 0.84034,0.25214 1.35374,0.810397 1.54296,1.671875 v 2.708985 85.853514 c 0,1.807 0.25355,3.04833 0.75782,3.7207 0.5253,0.77743 1.1328,1.20696 1.82617,1.29102 0.58835,0.1891 1.61905,0.2832 3.08984,0.2832 l 10.05469,0.12696 c 1.38678,0 2.42577,-0.0941 3.11914,-0.28321 0.67238,-0.084 1.35544,-0.42144 2.04883,-1.00976 1.21867,-0.94552 1.82812,-2.54082 1.82812,-4.78907 V 34.568359 32.488281 c 0,-1.365755 -0.094,-2.437413 -0.2832,-3.214843 -0.25214,-0.777431 -0.72653,-1.429788 -1.41992,-1.955079 -1.1136,-0.756418 -2.48805,-1.134765 -4.12695,-1.134765 h -20.89649 c -1.6389,0 -2.97434,0.378347 -4.0039,1.134765 -0.35719,0.357198 -0.82965,0.78869 -1.41797,1.292969 -0.60934,0.609337 -1.08177,1.218788 -1.41797,1.828125 l -12.79688,22.0625 c -0.42023,0.777431 -0.84979,1.333736 -1.29101,1.669922 -0.50429,0.441245 -1.06059,0.662109 -1.66992,0.662109 -1.47082,0 -2.45861,-0.862982 -2.9629,-2.585937 l -9.70703,-21.808594 c -0.58832,-1.218674 -1.35525,-2.259617 -2.30078,-3.121094 -1.02957,-0.840465 -2.502,-1.259765 -4.41406,-1.259765 z m 172.33789,0.125 c -1.80702,0 -3.35112,0.472445 -4.63281,1.417968 -1.38679,1.02957 -2.08008,2.365 -2.08008,4.003907 0,1.533849 0.6504,2.73032 1.95312,3.591797 1.28172,0.945523 2.78488,1.419922 4.50782,1.419922 h 10.71484 c 1.38676,0 2.59541,0.135052 3.625,0.408203 1.02957,0.336186 1.89062,0.851538 2.58399,1.544921 1.19765,1.281709 1.79687,3.173444 1.79687,5.673829 v 82.890629 c 0,0.86147 0.0839,1.7225 0.25195,2.58398 0.084,0.86148 0.47263,1.67132 1.16602,2.42773 0.60933,0.77743 1.26169,1.20696 1.95508,1.29102 0.58832,0.1891 1.61707,0.2832 3.08789,0.2832 h 9.67578 c 1.6389,0 2.93144,-0.21891 3.87695,-0.66015 0.86148,-0.42024 1.50164,-1.15645 1.92188,-2.20703 0.35719,-0.94553 0.53711,-2.14395 0.53711,-3.59375 V 43.203125 c 0,-2.22723 0.64016,-3.898101 1.92187,-5.011719 0.86148,-0.693383 1.5977,-1.122922 2.20703,-1.291015 0.3362,-0.105059 1.15433,-0.158203 2.45703,-0.158203 h 11.72461 c 1.47082,-10e-7 2.76336,-0.556306 3.87696,-1.669922 1.13464,-1.113617 1.70312,-2.40614 1.70312,-3.876954 0,-1.449802 -0.60945,-2.648226 -1.82812,-3.59375 -1.19769,-0.945523 -2.57406,-1.417968 -4.12891,-1.417968 z M 34.693359,26.6875 c -1.449802,0 -2.648226,0.558259 -3.59375,1.671875 -0.945523,1.113616 -1.417968,2.404186 -1.417968,3.875 v 42.486328 c 0,3.172757 -0.903938,5.369217 -2.710938,6.587891 -0.77743,0.504279 -2.763264,1.228306 -5.957031,2.173828 -1.113616,0.357198 -1.974647,0.872549 -2.583984,1.544922 -0.693384,0.693382 -1.124876,1.427647 -1.292969,2.205078 -0.08405,0.336186 -0.125,1.199171 -0.125,2.585937 v 36.527341 1.41992 c 0,0.86148 0.04095,1.59575 0.125,2.20508 0.08405,0.58833 0.347818,1.10368 0.789062,1.54492 0.77743,0.94553 2.237673,1.41797 4.38086,1.41797 h 10.210937 2.300781 c 1.638907,0 2.804664,-0.26181 3.498047,-0.78711 0.609343,-0.42023 0.999881,-0.97849 1.167969,-1.67187 0.168088,-0.69339 0.251953,-1.51151 0.251953,-2.45703 V 32.234375 c 0,-1.470814 -0.474397,-2.761384 -1.419922,-3.875 C 37.370883,27.245759 36.164173,26.6875 34.693359,26.6875 Z m 585.687501,0 c -1.4498,0 -2.64626,0.558259 -3.5918,1.671875 -0.94551,1.113616 -1.41797,2.404186 -1.41797,3.875 v 42.486328 c 0,3.172757 -0.90392,5.369217 -2.71093,6.587891 -0.77743,0.504279 -2.76328,1.228306 -5.95704,2.173828 -1.11362,0.357198 -1.97464,0.872549 -2.58398,1.544922 -0.69342,0.693382 -1.12491,1.427647 -1.29297,2.205078 -0.0842,0.336186 -0.12695,1.199171 -0.12695,2.585937 v 36.527341 1.41992 c 0,0.86148 0.0428,1.59575 0.12695,2.20508 0.0841,0.58833 0.34589,1.10368 0.78711,1.54492 0.77745,0.94553 2.23769,1.41797 4.38086,1.41797 h 10.21289 2.30078 c 1.63891,0 2.80466,-0.26181 3.49805,-0.78711 0.60936,-0.42023 0.99795,-0.97849 1.16602,-1.67187 0.16806,-0.69339 0.25195,-1.51151 0.25195,-2.45703 V 32.234375 c 0,-1.470814 -0.47243,-2.761384 -1.41797,-3.875 -0.94551,-1.113616 -2.15418,-1.671875 -3.625,-1.671875 z m -146.27148,8.005859 h 2.99414 23.48046 1.66993 c 1.89105,0 3.22648,0.431492 4.0039,1.292969 0.77748,0.861477 1.24991,1.679601 1.41797,2.457031 0.0839,0.861478 0.125,2.059902 0.125,3.59375 V 63.46875 c 0,1.55486 -0.0411,2.804476 -0.125,3.75 -0.16811,0.945522 -0.5055,1.892366 -1.00976,2.837891 -0.60934,0.945522 -1.55423,1.595927 -2.83594,1.953125 -1.38676,0.420233 -2.984,0.630859 -4.79102,0.630859 h -21.68359 c -1.80699,0 -3.22627,-0.126766 -4.25586,-0.378906 -1.13461,-0.168093 -2.13266,-0.681491 -2.99414,-1.542969 -0.94551,-0.777429 -1.41797,-1.724273 -1.41797,-2.837891 -0.0842,-1.134626 -0.125,-2.300382 -0.125,-3.498047 V 41.658203 c 0,-2.668477 0.90199,-4.601165 2.70898,-5.798828 0.94554,-0.693384 1.89238,-1.081969 2.8379,-1.166016 z m 255.60546,0 h 2.99414 23.48047 1.67188 c 1.89105,0 3.2245,0.431492 4.00195,1.292969 0.77745,0.861477 1.24991,1.679601 1.41797,2.457031 0.0842,0.861478 0.12695,2.059902 0.12695,3.59375 V 63.46875 c 0,1.55486 -0.0428,2.804476 -0.12695,3.75 -0.16809,0.945522 -0.50352,1.892366 -1.00781,2.837891 -0.60934,0.945522 -1.55618,1.595927 -2.83789,1.953125 -1.38676,0.420233 -2.98207,0.630859 -4.78907,0.630859 h -21.68554 c -1.80699,0 -3.22434,-0.126766 -4.25391,-0.378906 -1.13464,-0.168093 -2.13266,-0.681491 -2.99414,-1.542969 -0.94551,-0.777429 -1.41797,-1.724273 -1.41797,-2.837891 -0.0842,-1.134626 -0.12695,-2.300382 -0.12695,-3.498047 V 41.658203 c 0,-2.668477 0.90392,-4.601165 2.71094,-5.798828 0.94551,-0.693384 1.8904,-1.081969 2.83593,-1.166016 z m -441.21289,0.789063 h 3.08985 23.51172 1.41796 c 1.53385,0 2.77323,0.33544 3.71875,1.007812 1.21868,0.693384 2.03876,1.513461 2.45899,2.458985 0.3572,1.029568 0.53516,2.363044 0.53516,4.001953 v 21.43164 c 0,2.668478 -0.65041,4.822032 -1.95313,6.460938 -1.02957,1.113618 -2.06027,1.839595 -3.08984,2.175781 -1.11362,0.357196 -2.66796,0.535157 -4.66407,0.535157 h -21.68359 c -1.53385,-10e-7 -2.91023,-0.220868 -4.12891,-0.66211 -1.19766,-0.336186 -2.26932,-0.935397 -3.21484,-1.796875 -1.38677,-1.281708 -2.08008,-3.214397 -2.08008,-5.798828 V 42.447266 c 0,-2.416338 0.99804,-4.318311 2.99414,-5.705078 1.02957,-0.756419 2.05832,-1.17572 3.08789,-1.259766 z m -75.79883,0.251953 h 31.64454 c 2.66847,0 4.73816,0.640166 6.20898,1.921875 0.58832,0.609337 1.10172,1.302647 1.54297,2.080078 0.33619,0.777429 0.50391,1.503408 0.50391,2.175781 v 21.683594 2.332031 c 0,0.693385 -0.041,1.470556 -0.125,2.332032 -0.1681,0.861477 -0.82046,1.417782 -1.95508,1.669922 -1.11362,0.252139 -2.74158,0.556866 -4.88477,0.914062 -2.24824,0.420233 -3.80259,1.197402 -4.66406,2.332031 -0.86147,1.197662 -1.33391,2.144506 -1.41797,2.837891 -0.16809,0.67237 -0.25195,1.533402 -0.25195,2.583984 v 35.236324 c 0,1.63891 -0.0429,2.93144 -0.12696,3.87696 -0.16809,1.02957 -0.51377,1.97446 -1.03906,2.83594 -0.58832,0.94552 -1.57612,1.6715 -2.96289,2.17578 -1.47081,0.52529 -3.01492,0.78711 -4.63281,0.78711 h -16.79883 c -1.36576,0 -2.61733,-0.12677 -3.75195,-0.37891 -1.19767,-0.27315 -2.26932,-0.7456 -3.21485,-1.41797 -1.38676,-1.13463 -2.28875,-2.38424 -2.70898,-3.75 -0.44125,-1.30272 -0.66211,-3.06769 -0.66211,-5.29492 V 44.496094 c 0,-2.836571 0.77717,-5.033031 2.33203,-6.587891 0.86148,-0.861476 1.84928,-1.460689 2.96289,-1.796875 1.05058,-0.252139 2.38406,-0.376953 4.00195,-0.376953 z M 78.722656,100.15625 c -1.807002,0 -3.310151,0.59726 -4.507812,1.79492 -0.525289,0.60934 -0.913876,1.29241 -1.166016,2.04883 -0.357195,0.77743 -0.535156,1.59751 -0.535156,2.45898 v 19.50977 1.54297 c 0,0.69338 0.0941,1.38669 0.283203,2.08008 0.168091,0.67237 0.462579,1.27158 0.882813,1.79687 0.357198,0.60934 0.872548,1.04083 1.544921,1.29297 0.609336,0.25214 1.732185,0.37891 3.371094,0.37891 h 9.550781 c 1.197662,0 2.226416,-0.12677 3.087891,-0.37891 0.777431,-0.16809 1.513647,-0.59959 2.207031,-1.29297 0.693382,-0.60934 1.165829,-1.3436 1.417969,-2.20508 0.168088,-0.86147 0.251953,-1.93313 0.251953,-3.21484 v -19.88867 c 0,-1.72295 -0.640167,-3.1832 -1.921875,-4.38086 -0.609338,-0.52529 -1.218787,-0.91388 -1.828125,-1.16602 -0.67237,-0.25214 -1.48221,-0.37695 -2.427734,-0.37695 z m 305.687504,0.75586 c -1.80702,0 -3.36136,0.60945 -4.66407,1.82812 -0.42023,0.42024 -0.8088,1.0604 -1.16601,1.92188 -0.33618,0.86148 -0.50586,1.72251 -0.50586,2.58398 v 19.47852 c 0,1.38677 0.0858,2.42771 0.2539,3.12109 0.0841,0.67238 0.38879,1.3964 0.91407,2.17383 0.50429,0.86147 1.10155,1.33391 1.79492,1.41797 0.60933,0.1891 1.69122,0.2832 3.24609,0.2832 h 9.42383 c 0.86148,0 1.76543,-0.0941 2.71094,-0.2832 0.94554,-0.084 1.84948,-0.51358 2.71094,-1.29102 0.77747,-0.67237 1.2499,-1.35544 1.41797,-2.04882 0.0842,-0.69339 0.12695,-1.81819 0.12695,-3.37305 v -19.98242 c 0,-1.72296 -0.60946,-3.15053 -1.82813,-4.28516 -1.19765,-1.02957 -2.6579,-1.54492 -4.38086,-1.54492 z"
           transform="scale(0.26458333)" />
      </g>
    </g>
  </g>
</svg>
